<?xml version="1.0" standalone="no"?>
<!DOCTYPE svg PUBLIC "-//W3C//DTD SVG 20010904//EN"
 "http://www.w3.org/TR/2001/REC-SVG-20010904/DTD/svg10.dtd">
<svg version="1.0" xmlns="http://www.w3.org/2000/svg"
 width="447.000000pt" height="447.000000pt" viewBox="0 0 447.000000 447.000000"
 preserveAspectRatio="xMidYMid meet">
<metadata>
Created by potrace 1.11, written by Peter Selinger 2001-2013
</metadata>
<g transform="translate(0.000000,447.000000) scale(0.100000,-0.100000)"
fill="#000000" stroke="none">
<path d="M2134 3340 c15 -19 42 -63 58 -99 25 -55 31 -83 35 -166 6 -116 -4
-177 -49 -294 l-33 -83 -170 6 c-93 3 -287 9 -430 12 l-261 7 4 -104 c3 -81
-1 -124 -17 -192 -58 -244 -215 -513 -480 -822 -111 -129 -330 -355 -345 -355
-6 0 39 51 99 113 l110 112 -112 -109 c-62 -61 -110 -112 -107 -115 6 -6 -117
-131 -130 -131 -5 0 1 12 15 27 l24 28 -27 -24 c-16 -14 -26 -27 -23 -30 7 -6
-56 -71 -69 -71 -5 0 -1 10 10 23 l19 22 -23 -19 c-12 -11 -20 -22 -17 -24 7
-7 -45 -62 -58 -62 -5 0 -3 8 4 18 13 15 12 16 -4 3 -9 -8 -15 -16 -12 -19 6
-7 -35 -52 -47 -52 -5 0 -6 5 -2 12 4 7 3 8 -4 4 -6 -4 -8 -14 -5 -23 5 -14
20 -15 107 -9 506 33 1636 258 2506 499 461 128 914 281 1138 383 29 13 55 24
58 24 15 0 214 106 289 155 144 93 205 167 205 251 0 122 -185 223 -545 298
l-109 23 99 51 c190 97 323 201 360 279 34 71 15 149 -47 196 -218 164 -799
256 -1793 283 l-249 7 28 -33z"/>
<path d="M779 1623 c-13 -16 -12 -17 4 -4 9 7 17 15 17 17 0 8 -8 3 -21 -13z"/>
<path d="M724 1558 l-19 -23 23 19 c21 18 27 26 19 26 -2 0 -12 -10 -23 -22z"/>
</g>
</svg>
